<?xml version="1.0" ?><svg id="Layer_1" style="enable-background:new 0 0 62 62;" version="1.1" viewBox="0 0 62 62" xml:space="preserve" xmlns="http://www.w3.org/2000/svg" xmlns:xlink="http://www.w3.org/1999/xlink"><style type="text/css">
	.st0{fill:#5FD2FF;}
	.st1{fill:#FFFFFF;}
	.st2{fill:#0082ED;}
	.st3{fill:#2BA8FC;}
	.st4{fill:#CECECE;}
	.st5{fill:#F92B75;}
	.st6{fill:#3BB0FF;}
	.st7{fill:#CE004F;}
	.st8{fill:none;stroke:#ED0C68;stroke-width:5;stroke-linecap:round;stroke-linejoin:round;stroke-miterlimit:10;}
	.st9{fill:#ED0C68;}
	.st10{fill:#78DED4;}
	.st11{fill:#1E5363;}
	.st12{fill:#54C8E8;}
	.st13{fill:#F4F4F4;}
	.st14{fill:#0C82EB;}
	.st15{fill:#00B2E3;}
	.st16{fill:#68A2B9;}
	.st17{fill:#A2C5D3;}
	.st18{fill:#76777A;}
	.st19{fill:#A7A8A9;}
	.st20{fill:#D6D6D6;}
	.st21{fill:none;stroke:#F92B75;stroke-width:5;stroke-linecap:round;stroke-linejoin:round;stroke-miterlimit:10;}
	.st22{fill:#FD4A5C;}
	.st23{fill:#FF8E9F;}
	.st24{fill:none;stroke:#F458A3;stroke-width:5;stroke-linecap:round;stroke-linejoin:round;stroke-miterlimit:10;}
	.st25{fill:#FFB259;}
	.st26{fill:#F32735;}
	.st27{fill:#FF9E18;}
	.st28{fill:#FFC27A;}
	.st29{fill:#FFC56D;}
	.st30{fill:none;stroke:#FD4A5C;stroke-width:5;stroke-linecap:round;stroke-linejoin:round;stroke-miterlimit:10;}
	.st31{fill:#0069A7;}
	.st32{fill:#D8D8D8;}
	.st33{fill:#8CB7C9;}
	.st34{fill:#65BAAF;}
	.st35{fill:#00AF9A;}
	.st36{fill:#00C4B3;}
	.st37{fill:#19D3C5;}
	.st38{fill:none;stroke:#54C8E8;stroke-width:5;stroke-linecap:round;stroke-linejoin:round;stroke-miterlimit:10;}
	.st39{fill:#8331A7;}
	.st40{fill:#009383;}
	.st41{fill:#98989A;}
	.st42{fill:#636569;}
	.st43{fill:#898A8D;}
	.st44{fill:#FFB548;}
	.st45{fill:none;stroke:#FFB548;stroke-width:5;stroke-linecap:round;stroke-linejoin:round;stroke-miterlimit:10;}
	.st46{fill:#ED40A9;}
	.st47{fill:#CB007B;}
	.st48{fill:#E50695;}
	.st49{fill:#D7282F;}
	.st50{fill:#E5E5E5;}
	.st51{fill:#FFA4B4;}
	.st52{fill:#F6A7D7;}
	.st53{fill:#F478C4;}
	.st54{fill:#E0C7E6;}
	.st55{fill:#B980D0;}
	.st56{fill:#D9B7E2;}
	.st57{fill:#BADF93;}
	.st58{fill:#4C9C2E;}
	.st59{fill:#3DAE2B;}
	.st60{fill:#AADA91;}
	.st61{fill:#6ABF4B;}
	.st62{fill:#EFB8A9;}
	.st63{fill:#FECB8B;}
	.st64{fill:#BDE8EF;}
	.st65{fill:#CCA1DD;}
	.st66{fill:#B2B2B2;}
	.st67{fill:none;stroke:#FF8300;stroke-width:5;stroke-linecap:round;stroke-linejoin:round;stroke-miterlimit:10;}
	.st68{fill:none;stroke:#FF9E18;stroke-width:5;stroke-linecap:round;stroke-linejoin:round;stroke-miterlimit:10;}
	.st69{fill:#96DAEA;}
	.st70{fill:#FF8300;}
	.st71{fill:none;stroke:#6ABF4B;stroke-width:5;stroke-linecap:round;stroke-linejoin:round;stroke-miterlimit:10;}
	.st72{fill:none;}
	.st73{fill:#444444;}
	.st74{fill:#FDCF85;}
</style><g><circle class="st53" cx="31" cy="31" r="28.5"/><path class="st48" d="M31,62C13.91,62,0,48.09,0,31S13.91,0,31,0s31,13.91,31,31S48.09,62,31,62z M31,5C16.66,5,5,16.66,5,31   s11.66,26,26,26s26-11.66,26-26S45.34,5,31,5z"/><path class="st48" d="M22,27.95c-5.86,0-12.2-0.87-18.96-2.63c-1.34-0.35-2.14-1.71-1.79-3.05c0.35-1.34,1.71-2.14,3.05-1.79   c20.48,5.32,36.51,1.95,46.35-9.73c0.89-1.05,2.47-1.19,3.52-0.3c1.06,0.89,1.19,2.47,0.3,3.52C46.66,23.24,35.62,27.95,22,27.95z"/><path class="st48" d="M9.5,52.21c-0.58,0-1.15-0.2-1.62-0.6c-1.05-0.9-1.17-2.48-0.28-3.53c14.62-17.09,33.54-21.15,51.91-11.12   c1.21,0.66,1.66,2.18,1,3.39c-0.66,1.21-2.18,1.66-3.39,1c-22.06-12.03-38.11,1.09-45.72,9.99C10.91,51.91,10.21,52.21,9.5,52.21z"/><path class="st48" d="M39.19,60.8c-0.09,0-0.18,0-0.27-0.01c-1.37-0.15-2.36-1.38-2.21-2.76c1.95-17.88-2.65-35.91-13.66-53.61   c-0.73-1.17-0.37-2.71,0.8-3.44c1.17-0.73,2.71-0.37,3.44,0.8c11.62,18.67,16.46,37.78,14.39,56.8   C41.53,59.86,40.45,60.8,39.19,60.8z"/><path class="st46" d="M3.78,41.98c-1.07,0-2.05-0.69-2.39-1.76C0.47,37.24,0,34.14,0,31C0,14.87,12.59,1.29,28.66,0.09   c1.37-0.1,2.58,0.93,2.68,2.31s-0.93,2.58-2.31,2.68C15.56,6.08,5,17.47,5,31c0,2.64,0.39,5.24,1.17,7.73   c0.41,1.32-0.33,2.72-1.65,3.13C4.28,41.94,4.03,41.98,3.78,41.98z"/></g></svg>